<svg width="75" height="75" viewBox="0 0 75 75" fill="none" xmlns="http://www.w3.org/2000/svg">
<path d="M37.5 7.03125C20.6997 7.03125 7.03125 20.6997 7.03125 37.5C7.03125 54.3003 20.6997 67.9688 37.5 67.9688C54.3003 67.9688 67.9688 54.3003 67.9688 37.5C67.9688 20.6997 54.3003 7.03125 37.5 7.03125ZM30.1436 24.1436C31.9995 22.1763 34.6113 21.0938 37.5 21.0938C40.3887 21.0938 42.977 22.1836 44.8403 24.1611C46.7285 26.165 47.647 28.8574 47.4302 31.752C46.9966 37.5 42.5435 42.1875 37.5 42.1875C32.4565 42.1875 27.9946 37.5 27.5698 31.7505C27.3545 28.8325 28.2715 26.1313 30.1436 24.1436ZM37.5 63.2812C34.0583 63.2835 30.6512 62.5947 27.4807 61.2555C24.3102 59.9164 21.4409 57.9542 19.043 55.4854C20.4163 53.5268 22.1662 51.8616 24.1904 50.5869C27.9243 48.1934 32.6499 46.875 37.5 46.875C42.3501 46.875 47.0757 48.1934 50.8052 50.5869C52.831 51.861 54.5825 53.5263 55.957 55.4854C53.5593 57.9544 50.69 59.9168 47.5195 61.256C44.349 62.5951 40.9417 63.2839 37.5 63.2812Z" fill="white"/>
</svg>
